<svg width="34" height="34" viewBox="0 0 34 34" fill="none" xmlns="http://www.w3.org/2000/svg">
<path d="M15.4068 0.072937C9.5918 0.613068 4.6265 4.0819 2 8.99022L6.12922 16.1422L15.4068 0.072937Z" fill="#191B1D"/>
<path d="M1.52424 9.95483C0.545347 12.1014 0 14.4873 0 17.0006C0 20.097 0.827845 23.0002 2.27433 25.5007H10.4997L1.52424 9.95483Z" fill="#191B1D"/>
<path d="M2.82812 26.3947C5.8732 30.9785 11.083 34 16.9986 34C17.1351 34 17.2711 33.9984 17.4067 33.9952L21.7949 26.3947H2.82812Z" fill="#191B1D"/>
<path d="M18.4727 33.9371C24.3951 33.4281 29.4498 29.8828 32.073 24.8651L27.8917 17.623L18.4727 33.9371Z" fill="#191B1D"/>
<path d="M32.546 23.8906C33.4809 21.7845 34.0004 19.4529 34.0004 17.0001C34.0004 13.9036 33.1725 11.0005 31.726 8.5H23.6602L32.546 23.8906Z" fill="#191B1D"/>
<path d="M31.1718 7.60533H12.0938L16.4801 0.00782898C16.6532 0.00262157 16.827 0 17.0012 0C22.9169 0 28.1267 3.02146 31.1718 7.60533Z" fill="#191B1D"/>
<path d="M14.6987 19.06V17.576H18.8427C19.3374 17.576 19.7294 17.4453 20.0187 17.184C20.3081 16.9133 20.4527 16.54 20.4527 16.064C20.4527 15.5693 20.3081 15.1913 20.0187 14.93C19.7294 14.6687 19.3374 14.538 18.8427 14.538H14.9227V22H13.0607V12.942H18.6747C19.1787 12.942 19.6501 13.0027 20.0887 13.124C20.5367 13.2453 20.9241 13.432 21.2507 13.684C21.5867 13.936 21.8481 14.258 22.0347 14.65C22.2214 15.042 22.3147 15.5133 22.3147 16.064C22.3147 16.6053 22.2214 17.0673 22.0347 17.45C21.8481 17.8327 21.5867 18.1453 21.2507 18.388C20.9241 18.6213 20.5367 18.794 20.0887 18.906C19.6501 19.0087 19.1787 19.06 18.6747 19.06H14.6987Z" fill="#191B1D"/>
</svg>
